<svg xmlns="http://www.w3.org/2000/svg" width="29.332" height="29.333" viewBox="0 0 29.332 29.333"><g transform="translate(-1638 1919)"><g transform="translate(1637.998 -1919)"><g transform="translate(4.642 5.075)"><path d="M100.507,94.413l-5.72-5.72a.358.358,0,0,0-.506,0L81.1,101.874a.358.358,0,0,0,0,.506l5.72,5.72a.358.358,0,0,0,.506,0l13.181-13.181A.358.358,0,0,0,100.507,94.413Z" transform="translate(-80.995 -88.588)" fill="#fff"/></g><g transform="translate(19.847 0)"><g transform="translate(0 0)"><path d="M355.563,5.022,350.855.314a1.073,1.073,0,0,0-1.517,0l-2.843,2.843a.358.358,0,0,0,0,.506l5.72,5.72a.358.358,0,0,0,.506,0l2.843-2.843A1.073,1.073,0,0,0,355.563,5.022Z" transform="translate(-346.39 0)" fill="#fff"/></g></g><g transform="translate(0.002 20.652)"><g transform="translate(0)"><path d="M29.113,367.977a1.091,1.091,0,0,0-1.094-.951H6.4l2.066-.869a.358.358,0,0,0,.114-.583L3.6,360.6a.358.358,0,0,0-.583.114c-.025.06-2.9,6.894-2.924,6.954a1.076,1.076,0,0,0,1.037,1.5H28.047A1.073,1.073,0,0,0,29.113,367.977Z" transform="translate(-0.002 -360.494)" fill="#fff"/></g></g></g></g></svg>