<svg xmlns="http://www.w3.org/2000/svg" width="30.14" height="39.453" viewBox="0 0 30.14 39.453"><g transform="translate(-1396 1924)"><path d="M-300.127,159a6.031,6.031,0,0,1,6.031,6.031,6.031,6.031,0,0,1-6.031,6.031,6.031,6.031,0,0,1-6.031-6.031A6.031,6.031,0,0,1-300.127,159Zm-9.718,22.6a.713.713,0,0,1,.76-.76.7.7,0,0,1,.76.76v16.848h16.574V181.6a.713.713,0,0,1,.76-.76.713.713,0,0,1,.76.76v16.848h5.271V180.085a7.553,7.553,0,0,0-7.535-7.535h-1.52l-4.43,6.888-.534-5.158.728-1.746h-3.266l.728,1.746-.566,5.19-4.43-6.92h-1.779a7.553,7.553,0,0,0-7.535,7.535v18.368h5.271V181.6Z" transform="translate(1711.1 -2083)" fill="#fff"/></g></svg>