<svg xmlns="http://www.w3.org/2000/svg" width="73" height="73" viewBox="0 0 73 73"><g transform="translate(-893 2105)"><circle cx="36.5" cy="36.5" r="36.5" transform="translate(893 -2105)" fill="#b2b2b2"/><g transform="translate(-116 -2190)"><line y2="10" transform="translate(1047.956 119.38) rotate(90)" fill="none" stroke="#b2b2b2" stroke-linecap="round" stroke-width="4"/><line y2="14" transform="translate(1051.956 125.5) rotate(90)" fill="none" stroke="#b2b2b2" stroke-linecap="round" stroke-width="4"/><line y2="16" transform="translate(1053.956 131.62) rotate(90)" fill="none" stroke="#b2b2b2" stroke-linecap="round" stroke-width="4"/></g><g transform="translate(909 -2089)"><path d="M20.462,40.925A20.462,20.462,0,1,1,40.925,20.462,20.523,20.523,0,0,1,20.462,40.925ZM16.2,28.988c1.023,5.286,2.9,8.526,4.263,8.526s3.24-3.24,4.263-8.526Zm12.107,0a29.051,29.051,0,0,1-2.387,7.673A17.4,17.4,0,0,0,35.3,28.988Zm-22.679,0a17.4,17.4,0,0,0,9.379,7.673,29.051,29.051,0,0,1-2.387-7.673Zm23.191-3.41h8.014a24.681,24.681,0,0,0,.682-5.116,16.93,16.93,0,0,0-.853-5.116H28.647a25.812,25.812,0,0,1,.341,5.116C28.988,22.168,28.988,23.873,28.818,25.578Zm-13.13,0h9.72a45.37,45.37,0,0,0,.341-5.116,45.37,45.37,0,0,0-.341-5.116h-9.72a45.37,45.37,0,0,0-.341,5.116A45.37,45.37,0,0,0,15.688,25.578Zm-11.425,0h8.014c-.171-1.705-.171-3.41-.171-5.116s0-3.41.171-5.116H4.263a16.93,16.93,0,0,0-.853,5.116A16.93,16.93,0,0,0,4.263,25.578ZM28.306,11.936H35.3a17.4,17.4,0,0,0-9.379-7.673A29.051,29.051,0,0,1,28.306,11.936Zm-12.107,0h8.7C23.873,6.65,22,3.41,20.633,3.41S17.223,6.65,16.2,11.936Zm-10.572,0h6.991a29.051,29.051,0,0,1,2.387-7.673A18.033,18.033,0,0,0,5.627,11.936Z"/></g></g></svg>