<svg xmlns="http://www.w3.org/2000/svg" width="40.642" height="44.146" viewBox="0 0 40.642 44.146"><g transform="translate(-1150 1927)"><path d="M2,22.321v4.73H6.029V46.146H38.438V27.051h4.2v-4.73ZM27.226,10.759H17.241a5.028,5.028,0,0,0-4.905,5.08v5.606h3.5v-4.73a.526.526,0,0,1,1.051,0v4.73H27.577v-4.73a.526.526,0,1,1,1.051,0v4.73h3.5V15.839A5.052,5.052,0,0,0,27.226,10.759ZM22.234,2A3.964,3.964,0,1,0,26.2,5.964,3.971,3.971,0,0,0,22.234,2Z" transform="translate(1148 -1929)" fill="#fff"/></g></svg>