<svg xmlns="http://www.w3.org/2000/svg" width="42.682" height="37.409" viewBox="0 0 42.682 37.409"><g transform="translate(-668 1923)"><g transform="translate(-2.939 162.854)"><path d="M7.9,23.769,3.362,37.576l6.06-6.082a3.867,3.867,0,0,1,.538-3.7,2.954,2.954,0,0,1,4.16.026,3,3,0,0,1,.063,4.2,3.994,3.994,0,0,1-3.841.468L4.335,38.51l13.48-4.736,4.909-8.843-5.981-5.9L7.9,23.769ZM30.624,3.349S22.271,11.7,20.983,12.99s-1.965,6.141-1.965,6.141l3.745,3.746s4.729-.675,6.079-2.027,9.641-9.641,9.641-9.641L30.624,3.349Z" transform="translate(667.577 -2089.203)" fill="#fff"/><path d="M680.551-1904.5l5.85,7.8,13-12.35" transform="translate(12.099 -153.99)" fill="none" stroke="#fff" stroke-linecap="round" stroke-width="3"/></g></g></svg>