<svg xmlns="http://www.w3.org/2000/svg" width="30.24" height="37.8" viewBox="0 0 30.24 37.8"><g transform="translate(-432 1923)"><g transform="translate(125 -2264)"><g transform="translate(303 339)"><path d="M13.45,19.01a1.89,1.89,0,1,0,0,3.78H24.79a1.89,1.89,0,1,0,0-3.78Zm0,5.67a1.89,1.89,0,1,0,0,3.78H24.79a1.89,1.89,0,1,0,0-3.78ZM20.031,2a8.9,8.9,0,0,1,3.473.432,8.9,8.9,0,0,1,2.761,2.15q2.692,2.7,5.392,5.392a8.9,8.9,0,0,1,2.15,2.761,8.9,8.9,0,0,1,.432,3.473q-.011,7.133,0,14.265a34.748,34.748,0,0,1-.155,4.275,5.162,5.162,0,0,1-4.9,4.9,34.753,34.753,0,0,1-4.275.155H13.325a34.752,34.752,0,0,1-4.275-.155,5.616,5.616,0,0,1-3.39-1.505,5.616,5.616,0,0,1-1.505-3.39A34.749,34.749,0,0,1,4,30.474V11.45q0-.062,0-.124a34.752,34.752,0,0,1,.155-4.275,5.615,5.615,0,0,1,1.505-3.39A5.615,5.615,0,0,1,9.05,2.156,34.752,34.752,0,0,1,13.325,2Q16.678,2,20.031,2Z" transform="translate(0 0)" fill-rule="evenodd"/></g></g></g></svg>